<svg xmlns="http://www.w3.org/2000/svg" viewBox="0 0 44.86 44.86"><title>call</title><g id="Layer_2" data-name="Layer 2"><g id="Layer_1-2" data-name="Layer 1"><path id="call" d="M34.21,44.86c-5.69,0-12.67-4.26-21.31-12.9C-.28,18.77-3.27,9.47,3.51,2.69A9.27,9.27,0,0,1,7.83.12a3.81,3.81,0,0,1,4.25,1.79l5.46,9.34a3.83,3.83,0,0,1,0,3.91l-2.22,3.72a.84.84,0,0,0,0,.95A59.63,59.63,0,0,0,19.87,25,56.34,56.34,0,0,0,25,29.49a.83.83,0,0,0,.95.05l3.71-2.22a3.9,3.9,0,0,1,3.92,0h0L43,32.78A3.83,3.83,0,0,1,44.75,37a9.32,9.32,0,0,1-2.58,4.32A10.93,10.93,0,0,1,34.21,44.86ZM8.76,3a.76.76,0,0,0-.21,0A6.37,6.37,0,0,0,5.63,4.81C3.5,7-2.18,12.63,15,29.83s22.89,11.53,25,9.39a6.36,6.36,0,0,0,1.78-2.92.81.81,0,0,0-.39-.92L32.1,29.9a.86.86,0,0,0-.89,0l-3.7,2.21a3.81,3.81,0,0,1-4.33-.27,59.78,59.78,0,0,1-5.44-4.74A59.48,59.48,0,0,1,13,21.67a3.82,3.82,0,0,1-.27-4.32L15,13.62a.84.84,0,0,0,0-.85L9.49,3.43A.86.86,0,0,0,8.76,3Z" fill="#c2cced"/></g></g></svg>