<svg xmlns="http://www.w3.org/2000/svg" viewBox="0 0 14.53 14.08"><g id="Layer_2" data-name="Layer 2"><g id="reactions"><path id="comment" d="M4.11,14.08,3.73,14a.6.6,0,0,1-.34-.55c0-.3.07-.54.11-.78.07-.46.13-.9.17-1.33h0A3.64,3.64,0,0,1,0,7.65V3.19A3.19,3.19,0,0,1,3.19,0h8.15a3.19,3.19,0,0,1,3.19,3.19V7.65a3.64,3.64,0,0,1-3.63,3.64H7.55A21.75,21.75,0,0,1,4.37,13.9Zm-.34-1,0,0Zm-.58-12A2.14,2.14,0,0,0,1.05,3.19V7.65a2.59,2.59,0,0,0,2.58,2.59h.5a.61.61,0,0,1,.62.61,13.74,13.74,0,0,1-.17,1.6,16.48,16.48,0,0,0,2.3-2,.82.82,0,0,1,.57-.23H10.9a2.59,2.59,0,0,0,2.58-2.59V3.19a2.14,2.14,0,0,0-2.14-2.14Z" fill="#606060"/></g></g></svg>