<svg id="reactions" xmlns="http://www.w3.org/2000/svg" viewBox="0 0 16 16"><path id="like_strock" d="M15.87,9.81a1.89,1.89,0,0,0-.47-1.25,2,2,0,0,0,.3-1,1.89,1.89,0,0,0-1.6-1.88.63.63,0,0,0-.19,0h-4l.17-.87A4.67,4.67,0,0,0,9.6,1.13,2.09,2.09,0,0,0,7.79,0,1.94,1.94,0,0,0,7,.19a1,1,0,0,0-.57,1A5.37,5.37,0,0,1,6.27,3a10.9,10.9,0,0,1-.64,2.23A7.2,7.2,0,0,1,4.21,7a.92.92,0,0,0-.41-.1H1a.89.89,0,0,0-.9.89v7.28A.89.89,0,0,0,1,16H3.8a.89.89,0,0,0,.84-.6A3.39,3.39,0,0,0,6.39,16H12.2a1.88,1.88,0,0,0,1.89-2.25h0a1.91,1.91,0,0,0,1-1.7,2.06,2.06,0,0,0-.1-.62h0A1.91,1.91,0,0,0,15.87,9.81Zm-12.33,5H1.28V8.09H3.54ZM7.4,3.09a4.79,4.79,0,0,1,.12-1.75.43.43,0,0,1,.25-.21c.31,0,.55.14.84.59A3.34,3.34,0,0,1,9,4.5c-.06.29-.12.59-.18.92l-.2,1.23a.09.09,0,0,0,.09.11h5.22a.76.76,0,0,1,.62.9.64.64,0,0,1-.11.27L14,8.66l.57.65a.75.75,0,0,1,.19.5.77.77,0,0,1-.34.63l-.72.49.28.83A.69.69,0,0,1,14,12a.79.79,0,0,1-.41.68l-.76.39.16.83a.78.78,0,0,1-.75.91H6.39a2.45,2.45,0,0,1-1.7-.89V8.22l0-.13h0l.39-.31a7.35,7.35,0,0,0,1.51-2,5.74,5.74,0,0,0,.74-2.48Z" fill="#8a8d92"/></svg>