<svg xmlns="http://www.w3.org/2000/svg" viewBox="0 0 13.61 12.14"><g id="Layer_2" data-name="Layer 2"><g id="reactions"><path id="share" d="M7.18,12.14a.78.78,0,0,1-.21,0,.55.55,0,0,1-.32-.49V9.19C1.76,9.34,1.06,11.65,1,11.75a.53.53,0,0,1-.58.38A.52.52,0,0,1,0,11.61C0,11.53.08,3.38,6.65,3V.53A.55.55,0,0,1,7,0a.54.54,0,0,1,.57.1l5.91,5.51a.55.55,0,0,1,.16.39.51.51,0,0,1-.16.38L7.54,12A.51.51,0,0,1,7.18,12.14Zm0-4a.52.52,0,0,1,.52.52V10.4L12.32,6,7.7,1.73V3.48A.52.52,0,0,1,7.18,4C3,4,1.66,7.52,1.24,9.78,2.24,9,4,8.13,7.18,8.13Z" fill="#5c5d61"/></g></g></svg>